HIERARCHY
ROOT mixamorig:Hips
{
	OFFSET 0.000000 103.991501 0.000000
	CHANNELS 6 Xposition Yposition Zposition Xrotation Yrotation Zrotation
	JOINT mixamorig:Spine
	{
		OFFSET 0.000000 10.181602 0.131500
		CHANNELS 6 Xposition Yposition Zposition Xrotation Yrotation Zrotation
		JOINT mixamorig:Spine1
		{
			OFFSET 0.000000 10.083504 -1.000800
			CHANNELS 6 Xposition Yposition Zposition Xrotation Yrotation Zrotation
			JOINT mixamorig:Spine2
			{
				OFFSET 0.000000 9.100006 -1.373400
				CHANNELS 6 Xposition Yposition Zposition Xrotation Yrotation Zrotation
				JOINT mixamorig:Neck
				{
					OFFSET 0.000000 16.671707 -2.516200
					CHANNELS 6 Xposition Yposition Zposition Xrotation Yrotation Zrotation
					JOINT mixamorig:Head
					{
						OFFSET 0.000000 9.617905 1.685000
						CHANNELS 6 Xposition Yposition Zposition Xrotation Yrotation Zrotation
						JOINT mixamorig:HeadTop_End
						{
							OFFSET 0.000000 17.815201 2.585000
							CHANNELS 6 Xposition Yposition Zposition Xrotation Yrotation Zrotation
							End Site
							{
								OFFSET 0.000000 13.794495 0.000000
							}
						}
						JOINT mixamorig:LeftEye
						{
							OFFSET 3.067600 6.409500 9.283600
							CHANNELS 6 Xposition Yposition Zposition Xrotation Yrotation Zrotation
							End Site
							{
								OFFSET 0.000000 13.794495 0.000000
							}
						}
						JOINT mixamorig:RightEye
						{
							OFFSET -3.067600 6.409500 9.283500
							CHANNELS 6 Xposition Yposition Zposition Xrotation Yrotation Zrotation
							End Site
							{
								OFFSET 0.000000 13.794495 0.000000
							}
						}
					}
				}
				JOINT mixamorig:LeftShoulder
				{
					OFFSET 4.570400 10.945999 -2.628000
					CHANNELS 6 Xposition Yposition Zposition Xrotation Yrotation Zrotation
					JOINT mixamorig:LeftArm
					{
						OFFSET 10.592400 -0.524597 -2.232100
						CHANNELS 6 Xposition Yposition Zposition Xrotation Yrotation Zrotation
						JOINT mixamorig:LeftForeArm
						{
							OFFSET 27.841492 0.000107 0.000000
							CHANNELS 3 Xrotation Yrotation Zrotation
							JOINT mixamorig:LeftHand
							{
								OFFSET 28.328808 -0.000107 0.000000
								CHANNELS 3 Xrotation Yrotation Zrotation
								JOINT mixamorig:LeftHandThumb1
								{
									OFFSET 2.466103 -1.576218 2.681689
									CHANNELS 6 Xposition Yposition Zposition Xrotation Yrotation Zrotation
									JOINT mixamorig:LeftHandThumb2
									{
										OFFSET 3.229782 -1.864716 1.864716
										CHANNELS 6 Xposition Yposition Zposition Xrotation Yrotation Zrotation
										JOINT mixamorig:LeftHandThumb3
										{
											OFFSET 2.652611 -1.531494 1.531488
											CHANNELS 6 Xposition Yposition Zposition Xrotation Yrotation Zrotation
											JOINT mixamorig:LeftHandThumb4
											{
												OFFSET 1.954605 -1.128494 1.128493
												CHANNELS 6 Xposition Yposition Zposition Xrotation Yrotation Zrotation
												End Site
												{
													OFFSET 2.523392 0.000397 0.000386
												}
											}
										}
									}
								}
								JOINT mixamorig:LeftHandIndex1
								{
									OFFSET 9.109299 -0.518112 2.259867
									CHANNELS 6 Xposition Yposition Zposition Xrotation Yrotation Zrotation
									JOINT mixamorig:LeftHandIndex2
									{
										OFFSET 3.676407 0.000000 0.000000
										CHANNELS 3 Xrotation Yrotation Zrotation
										JOINT mixamorig:LeftHandIndex3
										{
											OFFSET 2.883095 0.000000 0.000000
											CHANNELS 3 Xrotation Yrotation Zrotation
											JOINT mixamorig:LeftHandIndex4
											{
												OFFSET 2.392700 0.000000 0.000000
												CHANNELS 3 Xrotation Yrotation Zrotation
												End Site
												{
													OFFSET 2.392700 0.000000 0.000000
												}
											}
										}
									}
								}
								JOINT mixamorig:LeftHandMiddle1
								{
									OFFSET 9.533401 0.000000 0.000000
									CHANNELS 6 Xposition Yposition Zposition Xrotation Yrotation Zrotation
									JOINT mixamorig:LeftHandMiddle2
									{
										OFFSET 3.698196 0.000000 0.000000
										CHANNELS 3 Xrotation Yrotation Zrotation
										JOINT mixamorig:LeftHandMiddle3
										{
											OFFSET 2.950897 0.000000 0.000000
											CHANNELS 3 Xrotation Yrotation Zrotation
											JOINT mixamorig:LeftHandMiddle4
											{
												OFFSET 2.833893 0.000000 0.000000
												CHANNELS 3 Xrotation Yrotation Zrotation
												End Site
												{
													OFFSET 2.833900 0.000000 0.000000
												}
											}
										}
									}
								}
								JOINT mixamorig:LeftHandRing1
								{
									OFFSET 9.104500 -0.043060 -1.865119
									CHANNELS 6 Xposition Yposition Zposition Xrotation Yrotation Zrotation
									JOINT mixamorig:LeftHandRing2
									{
										OFFSET 3.154007 0.000000 0.000000
										CHANNELS 3 Xrotation Yrotation Zrotation
										JOINT mixamorig:LeftHandRing3
										{
											OFFSET 2.937691 0.000000 0.000000
											CHANNELS 3 Xrotation Yrotation Zrotation
											JOINT mixamorig:LeftHandRing4
											{
												OFFSET 2.647507 0.000000 0.000000
												CHANNELS 3 Xrotation Yrotation Zrotation
												End Site
												{
													OFFSET 2.647499 0.000000 0.000000
												}
											}
										}
									}
								}
								JOINT mixamorig:LeftHandPinky1
								{
									OFFSET 8.077797 -0.486984 -3.806321
									CHANNELS 6 Xposition Yposition Zposition Xrotation Yrotation Zrotation
									JOINT mixamorig:LeftHandPinky2
									{
										OFFSET 3.600006 0.000000 0.000000
										CHANNELS 3 Xrotation Yrotation Zrotation
										JOINT mixamorig:LeftHandPinky3
										{
											OFFSET 2.114189 0.000000 0.000000
											CHANNELS 3 Xrotation Yrotation Zrotation
											JOINT mixamorig:LeftHandPinky4
											{
												OFFSET 1.975693 0.000000 0.000000
												CHANNELS 3 Xrotation Yrotation Zrotation
												End Site
												{
													OFFSET 1.975700 0.000000 0.000000
												}
											}
										}
									}
								}
							}
						}
					}
				}
				JOINT mixamorig:RightShoulder
				{
					OFFSET -4.570000 10.946198 -2.628000
					CHANNELS 6 Xposition Yposition Zposition Xrotation Yrotation Zrotation
					JOINT mixamorig:RightArm
					{
						OFFSET -10.592800 -0.524796 -2.232100
						CHANNELS 6 Xposition Yposition Zposition Xrotation Yrotation Zrotation
						JOINT mixamorig:RightForeArm
						{
							OFFSET -27.841492 0.000000 0.000000
							CHANNELS 3 Xrotation Yrotation Zrotation
							JOINT mixamorig:RightHand
							{
								OFFSET -28.328808 0.000000 0.000000
								CHANNELS 6 Xposition Yposition Zposition Xrotation Yrotation Zrotation
								JOINT mixamorig:RightHandPinky1
								{
									OFFSET -8.076698 -0.486725 -3.806227
									CHANNELS 6 Xposition Yposition Zposition Xrotation Yrotation Zrotation
									JOINT mixamorig:RightHandPinky2
									{
										OFFSET -3.599998 0.000000 0.000000
										CHANNELS 6 Xposition Yposition Zposition Xrotation Yrotation Zrotation
										JOINT mixamorig:RightHandPinky3
										{
											OFFSET -2.114197 0.000000 0.000000
											CHANNELS 3 Xrotation Yrotation Zrotation
											JOINT mixamorig:RightHandPinky4
											{
												OFFSET -1.975693 0.000000 0.000000
												CHANNELS 3 Xrotation Yrotation Zrotation
												End Site
												{
													OFFSET -1.975700 0.000000 0.000000
												}
											}
										}
									}
								}
								JOINT mixamorig:RightHandRing1
								{
									OFFSET -9.103600 -0.043030 -1.865120
									CHANNELS 6 Xposition Yposition Zposition Xrotation Yrotation Zrotation
									JOINT mixamorig:RightHandRing2
									{
										OFFSET -3.154007 0.000000 0.000000
										CHANNELS 3 Xrotation Yrotation Zrotation
										JOINT mixamorig:RightHandRing3
										{
											OFFSET -2.937691 0.000000 0.000000
											CHANNELS 3 Xrotation Yrotation Zrotation
											JOINT mixamorig:RightHandRing4
											{
												OFFSET -2.647507 0.000000 0.000000
												CHANNELS 3 Xrotation Yrotation Zrotation
												End Site
												{
													OFFSET -2.647499 0.000000 0.000000
												}
											}
										}
									}
								}
								JOINT mixamorig:RightHandMiddle1
								{
									OFFSET -9.532501 0.000000 0.000000
									CHANNELS 6 Xposition Yposition Zposition Xrotation Yrotation Zrotation
									JOINT mixamorig:RightHandMiddle2
									{
										OFFSET -3.698196 0.000000 0.000000
										CHANNELS 3 Xrotation Yrotation Zrotation
										JOINT mixamorig:RightHandMiddle3
										{
											OFFSET -2.950897 0.000000 0.000000
											CHANNELS 3 Xrotation Yrotation Zrotation
											JOINT mixamorig:RightHandMiddle4
											{
												OFFSET -2.833900 0.000000 0.000000
												CHANNELS 6 Xposition Yposition Zposition Xrotation Yrotation Zrotation
												End Site
												{
													OFFSET -2.833893 0.000000 -0.000100
												}
											}
										}
									}
								}
								JOINT mixamorig:RightHandIndex1
								{
									OFFSET -9.108299 -0.517853 2.259859
									CHANNELS 6 Xposition Yposition Zposition Xrotation Yrotation Zrotation
									JOINT mixamorig:RightHandIndex2
									{
										OFFSET -3.676407 0.000000 0.000000
										CHANNELS 3 Xrotation Yrotation Zrotation
										JOINT mixamorig:RightHandIndex3
										{
											OFFSET -2.883095 0.000000 0.000000
											CHANNELS 3 Xrotation Yrotation Zrotation
											JOINT mixamorig:RightHandIndex4
											{
												OFFSET -2.392700 0.000000 0.000000
												CHANNELS 3 Xrotation Yrotation Zrotation
												End Site
												{
													OFFSET -2.392700 0.000000 0.000000
												}
											}
										}
									}
								}
								JOINT mixamorig:RightHandThumb1
								{
									OFFSET -2.464798 -1.573944 2.681868
									CHANNELS 6 Xposition Yposition Zposition Xrotation Yrotation Zrotation
									JOINT mixamorig:RightHandThumb2
									{
										OFFSET -3.229782 -1.864716 1.864716
										CHANNELS 6 Xposition Yposition Zposition Xrotation Yrotation Zrotation
										JOINT mixamorig:RightHandThumb3
										{
											OFFSET -2.652542 -1.531448 1.531448
											CHANNELS 6 Xposition Yposition Zposition Xrotation Yrotation Zrotation
											JOINT mixamorig:RightHandThumb4
											{
												OFFSET -1.954605 -1.128494 1.128493
												CHANNELS 6 Xposition Yposition Zposition Xrotation Yrotation Zrotation
												End Site
												{
													OFFSET -2.523392 0.000412 0.000398
												}
											}
										}
									}
								}
							}
						}
					}
				}
			}
		}
	}
	JOINT mixamorig:LeftUpLeg
	{
		OFFSET 8.207800 -6.751701 -1.599600
		CHANNELS 6 Xposition Yposition Zposition Xrotation Yrotation Zrotation
		JOINT mixamorig:LeftLeg
		{
			OFFSET 0.000000 -44.370499 0.284600
			CHANNELS 6 Xposition Yposition Zposition Xrotation Yrotation Zrotation
			JOINT mixamorig:LeftFoot
			{
				OFFSET 0.000000 -44.427898 -2.982200
				CHANNELS 6 Xposition Yposition Zposition Xrotation Yrotation Zrotation
				JOINT mixamorig:LeftToeBase
				{
					OFFSET 0.000000 -8.728700 10.710600
					CHANNELS 6 Xposition Yposition Zposition Xrotation Yrotation Zrotation
					JOINT mixamorig:LeftToe_End
					{
						OFFSET 0.000000 -0.000700 9.278099
						CHANNELS 6 Xposition Yposition Zposition Xrotation Yrotation Zrotation
						End Site
						{
							OFFSET 0.000000 0.000000 9.278101
						}
					}
				}
			}
		}
	}
	JOINT mixamorig:RightUpLeg
	{
		OFFSET -8.207800 -6.751701 -1.599600
		CHANNELS 6 Xposition Yposition Zposition Xrotation Yrotation Zrotation
		JOINT mixamorig:RightLeg
		{
			OFFSET 0.000000 -44.370499 0.286200
			CHANNELS 6 Xposition Yposition Zposition Xrotation Yrotation Zrotation
			JOINT mixamorig:RightFoot
			{
				OFFSET 0.000000 -44.427700 -2.983800
				CHANNELS 6 Xposition Yposition Zposition Xrotation Yrotation Zrotation
				JOINT mixamorig:RightToeBase
				{
					OFFSET 0.000000 -8.728700 10.710600
					CHANNELS 6 Xposition Yposition Zposition Xrotation Yrotation Zrotation
					JOINT mixamorig:RightToe_End
					{
						OFFSET 0.000000 -0.000700 9.278100
						CHANNELS 6 Xposition Yposition Zposition Xrotation Yrotation Zrotation
						End Site
						{
							OFFSET 0.000000 0.000000 9.278101
						}
					}
				}
			}
		}
	}
}
MOTION
Frames: 4
Frame Time: 0.033333
-1.651323 89.634644 1.677010 -2.481749 -34.705243 -1.987870 0.000000 10.181610 0.131499 4.646962 1.402806 1.954928 -0.000000 10.083502 -1.000800 7.328482 2.947302 1.069338 0.000000 9.100005 -1.373399 7.263254 3.102014 1.104267 -0.000000 16.671701 -2.516201 9.672863 2.068572 -4.979149 -0.000004 9.617908 1.684996 18.889122 7.726287 -14.815923 0.000001 17.815216 2.584991 0.000004 0.000001 -0.000000 3.067600 6.409515 9.283579 0.000004 0.000001 -0.000000 -3.067600 6.409515 9.283482 0.000004 0.000001 -0.000000 4.570404 10.946012 -2.628006 -0.831794 8.296297 -6.638026 10.592413 -0.524607 -2.232097 -25.420919 -22.476862 -68.749877 0.000672 -110.668230 0.000926 13.191967 -3.860619 14.155045 2.466120 -1.576198 2.681693 9.056404 10.601969 -5.965556 3.229794 -1.864703 1.864716 9.417677 22.103534 3.251300 2.652617 -1.531482 1.531464 2.732977 51.440064 6.459136 1.954606 -1.128481 1.128491 -0.000000 0.000000 -0.000001 9.109306 -0.518107 2.259866 5.468821 6.735378 -78.128061 8.288570 6.736418 -101.829241 5.506378 6.743101 -78.448063 -0.000001 -0.000000 -0.000000 9.533399 -0.000005 0.000002 5.466915 6.734976 -78.111853 8.290478 6.736025 -101.845449 5.506374 6.743108 -78.448049 -0.000001 -0.000000 -0.000000 9.104519 -0.043056 -1.865117 5.468820 6.735382 -78.128061 8.288573 6.736423 -101.829221 5.506375 6.743107 -78.448049 -0.000002 0.000001 -0.000001 8.077810 -0.486982 -3.806321 7.578368 7.180481 -77.998848 8.273336 2.652713 -101.675562 5.501552 6.742124 -78.406993 0.000004 0.000001 -0.000000 -4.570001 10.946198 -2.628007 3.717556 17.827600 0.729108 -10.592798 -0.524795 -2.232105 -20.706985 26.883987 64.422133 0.000019 126.831804 -0.000027 -28.328814 0.000019 -0.000009 2.870819 5.675204 -12.064249 -8.076700 -0.486731 -3.806222 5.628762 -6.822404 79.026778 -3.599999 0.000012 -0.000007 7.017424 -6.947889 90.571963 3.897161 -6.245455 63.897028 -0.000000 0.000001 -0.000003 -9.103580 -0.043035 -1.865119 5.628767 -6.822402 79.026778 7.017425 -6.947887 90.571949 3.897161 -6.245454 63.897028 0.000000 0.000001 -0.000001 -9.532495 0.000001 0.000002 5.628767 -6.822402 79.026778 7.017425 -6.947887 90.571949 3.897154 -6.245454 63.897034 -2.833889 0.000001 0.000001 -0.000002 0.000000 0.000002 -9.108294 -0.517859 2.259861 5.628767 -6.822402 79.026778 7.017425 -6.947887 90.571949 3.897161 -6.245454 63.897028 0.000000 0.000001 -0.000001 -2.464790 -1.573951 2.681875 -0.815741 -16.226002 6.504806 -3.229793 -1.864697 1.864719 17.424106 -21.200378 1.267102 -2.652545 -1.531457 1.531449 18.064204 -57.087643 -8.376497 -1.954601 -1.128506 1.128477 0.000002 0.000000 0.000001 8.207802 -6.751692 -1.599597 -34.024744 3.280882 20.143054 -0.000001 -44.370499 0.284593 46.825673 -8.470316 10.076781 -0.000001 -44.427902 -2.982202 -17.510484 -11.858201 -24.159503 0.000003 -8.728699 10.710601 0.191301 -0.000012 -0.000000 0.000003 -0.000700 9.278099 0.000000 -0.000000 -0.000000 -8.207801 -6.751696 -1.599600 -6.645253 -14.653099 -18.512968 -0.000002 -44.370502 0.286200 45.557778 -7.316891 -1.213779 0.000002 -44.427696 -2.983796 -31.931029 -7.470143 22.118598 -0.000004 -8.728700 10.710599 0.094627 -0.000009 0.000004 -0.000001 -0.000700 9.278099 -0.000000 -0.000000 0.000000 
-1.616605 89.060844 2.546992 -3.018165 -34.377531 -2.134933 0.000000 10.181601 0.131501 4.908445 1.489685 1.917989 -0.000000 10.083497 -1.000800 7.592273 3.103828 0.992036 0.000000 9.100021 -1.373399 7.524272 3.259461 1.035392 -0.000000 16.671698 -2.516198 9.714758 2.004494 -4.944997 -0.000002 9.617919 1.685002 19.387507 7.278507 -14.557640 -0.000002 17.815216 2.585005 0.000003 -0.000001 0.000000 3.067598 6.409515 9.283595 0.000003 -0.000001 0.000000 -3.067601 6.409515 9.283499 0.000003 -0.000001 0.000000 4.570401 10.946001 -2.627997 -0.796282 8.153718 -6.435099 10.592422 -0.524589 -2.232092 -25.685985 -23.038978 -69.257599 0.000690 -109.814771 0.000947 13.850702 -2.953187 14.131596 2.466111 -1.576213 2.681701 9.056405 10.601964 -5.965558 3.229798 -1.864720 1.864710 9.417677 22.103537 3.251298 2.652619 -1.531484 1.531471 2.732977 51.440064 6.459137 1.954612 -1.128507 1.128489 0.000002 0.000001 -0.000003 9.109285 -0.518117 2.259872 5.468816 6.735381 -78.128061 8.288571 6.736422 -101.829248 5.506375 6.743101 -78.448063 0.000004 -0.000001 -0.000001 9.533395 -0.000001 0.000006 5.466913 6.734975 -78.111853 8.290478 6.736024 -101.845449 5.506373 6.743107 -78.448049 0.000003 -0.000001 -0.000001 9.104485 -0.043068 -1.865119 5.468817 6.735382 -78.128061 8.288572 6.736426 -101.829228 5.506376 6.743107 -78.448056 0.000003 -0.000000 0.000000 8.077823 -0.486994 -3.806317 7.578366 7.180478 -77.998848 8.273335 2.652715 -101.675569 5.501552 6.742126 -78.406993 0.000003 -0.000000 -0.000000 -4.570001 10.946195 -2.627997 3.810817 18.359357 0.647319 -10.592794 -0.524796 -2.232108 -21.158550 26.383995 64.269409 0.000023 126.510581 -0.000027 -28.328815 0.000002 -0.000002 2.060682 5.910538 -12.194029 -8.076718 -0.486718 -3.806221 5.628761 -6.822408 79.026778 -3.600000 0.000021 -0.000006 7.017420 -6.947887 90.571963 3.897159 -6.245461 63.897028 -0.000002 -0.000000 0.000001 -9.103580 -0.043031 -1.865120 5.628766 -6.822405 79.026785 7.017417 -6.947886 90.571949 3.897158 -6.245462 63.897028 -0.000000 0.000000 -0.000001 -9.532495 -0.000001 0.000008 5.628766 -6.822405 79.026785 7.017417 -6.947886 90.571949 3.897155 -6.245461 63.897034 -2.833896 0.000001 -0.000002 -0.000002 -0.000001 -0.000002 -9.108309 -0.517846 2.259865 5.628766 -6.822405 79.026785 7.017417 -6.947886 90.571949 3.897158 -6.245462 63.897028 -0.000000 0.000000 -0.000001 -2.464800 -1.573940 2.681874 -0.815741 -16.226007 6.504807 -3.229782 -1.864697 1.864717 17.424106 -21.200378 1.267101 -2.652549 -1.531453 1.531441 18.064204 -57.087640 -8.376492 -1.954603 -1.128506 1.128489 0.000002 -0.000004 -0.000001 8.207801 -6.751700 -1.599597 -34.512393 3.240325 19.970765 -0.000004 -44.370499 0.284594 49.318245 -8.733884 9.975472 -0.000002 -44.427902 -2.982201 -18.330225 -11.450570 -23.787314 -0.000000 -8.728700 10.710602 0.046773 -0.000075 0.081094 -0.000001 -0.000700 9.278102 0.000000 0.000001 0.000000 -8.207801 -6.751698 -1.599600 -6.367455 -16.028374 -19.706897 0.000002 -44.370502 0.286200 46.104590 -5.872434 -1.369805 0.000005 -44.427700 -2.983796 -32.585613 -7.684794 22.251107 0.000000 -8.728700 10.710599 0.000020 -0.000024 0.000001 0.000002 -0.000700 9.278098 -0.000000 -0.000002 0.000000 
-1.564670 88.431923 3.862316 -3.885490 -34.674118 -2.280162 0.000000 10.181605 0.131500 5.390845 1.663299 1.930868 -0.000000 10.083503 -1.000799 8.031257 3.409776 0.978025 -0.000001 9.099999 -1.373399 7.957692 3.561520 1.042030 -0.000001 16.671696 -2.516201 9.782620 1.969033 -4.958771 -0.000000 9.617910 1.685007 20.215572 6.964910 -14.764200 0.000001 17.815186 2.585008 0.000002 0.000000 0.000000 3.067601 6.409484 9.283607 0.000002 0.000000 0.000000 -3.067600 6.409500 9.283500 0.000002 0.000000 0.000000 4.570402 10.946018 -2.627998 -0.935509 8.707441 -6.372660 10.592422 -0.524591 -2.232091 -24.998837 -24.218901 -69.568933 0.000619 -109.332409 0.000884 15.158054 -2.198844 15.177071 2.466101 -1.576200 2.681680 9.056401 10.601968 -5.965559 3.229787 -1.864717 1.864722 9.417676 22.103537 3.251305 2.652618 -1.531469 1.531477 2.732974 51.440064 6.459141 1.954613 -1.128495 1.128482 0.000001 0.000001 -0.000000 9.109299 -0.518105 2.259861 5.468819 6.735381 -78.128061 8.288569 6.736420 -101.829248 5.506378 6.743097 -78.448056 0.000003 0.000000 0.000000 9.533400 0.000001 -0.000010 5.466915 6.734975 -78.111853 8.290480 6.736024 -101.845442 5.506373 6.743111 -78.448049 0.000002 0.000002 0.000000 9.104486 -0.043069 -1.865133 5.468819 6.735381 -78.128061 8.288572 6.736424 -101.829221 5.506375 6.743111 -78.448049 0.000003 0.000001 0.000001 8.077782 -0.486995 -3.806332 7.578363 7.180481 -77.998841 8.273334 2.652715 -101.675569 5.501549 6.742128 -78.406993 -0.000001 -0.000000 -0.000002 -4.570002 10.946180 -2.627995 3.885851 18.723669 0.536218 -10.592802 -0.524810 -2.232097 -22.221351 26.461872 63.550484 0.000021 126.022263 -0.000023 -28.328810 -0.000011 -0.000013 1.295782 6.394759 -12.098505 -8.076703 -0.486718 -3.806224 5.628762 -6.822410 79.026778 -3.599998 0.000018 0.000010 7.017420 -6.947889 90.571963 3.897158 -6.245458 63.897028 -0.000002 0.000000 -0.000003 -9.103581 -0.043035 -1.865122 5.628765 -6.822405 79.026785 7.017419 -6.947887 90.571949 3.897157 -6.245457 63.897028 -0.000000 -0.000000 0.000000 -9.532495 -0.000007 -0.000003 5.628765 -6.822405 79.026785 7.017419 -6.947887 90.571949 3.897154 -6.245457 63.897034 -2.833888 0.000014 -0.000002 0.000000 -0.000001 -0.000002 -9.108294 -0.517852 2.259860 5.628765 -6.822405 79.026785 7.017419 -6.947887 90.571949 3.897157 -6.245457 63.897028 -0.000000 -0.000000 0.000000 -2.464800 -1.573953 2.681870 -0.815741 -16.226006 6.504807 -3.229778 -1.864712 1.864716 17.424106 -21.200383 1.267102 -2.652552 -1.531449 1.531435 18.064211 -57.087643 -8.376492 -1.954599 -1.128510 1.128503 0.000000 0.000003 0.000001 8.207801 -6.751705 -1.599599 -35.811409 2.743327 20.229012 0.000001 -44.370491 0.284597 54.137620 -8.738119 8.750307 -0.000002 -44.427902 -2.982200 -16.684702 -11.431212 -23.043002 -0.000000 -8.728701 10.710602 -3.135401 -0.007270 0.847752 -0.000002 -0.000700 9.278098 0.000000 -0.000001 0.000000 -8.207799 -6.751698 -1.599600 -6.048706 -17.700673 -21.565262 -0.000004 -44.370502 0.286202 46.429447 -3.271726 -1.828787 0.000005 -44.427700 -2.983800 -33.400960 -7.886737 22.214417 0.000000 -8.728700 10.710600 -0.363813 0.000037 -0.000006 0.000002 -0.000700 9.278101 -0.000000 -0.000001 -0.000000 
-1.459956 87.733818 5.902728 -4.918467 -35.863090 -2.435406 0.000000 10.181594 0.131502 6.021618 1.955370 1.945590 0.000000 10.083504 -1.000800 8.572817 3.919814 0.884691 0.000000 9.100007 -1.373398 8.494390 4.055750 0.986228 0.000002 16.671705 -2.516204 9.896221 1.947830 -4.888626 0.000001 9.617900 1.685001 21.323671 6.930156 -15.587655 -0.000002 17.815201 2.584994 0.000001 0.000000 -0.000000 3.067600 6.409485 9.283604 0.000001 0.000000 -0.000000 -3.067601 6.409485 9.283502 0.000001 0.000000 -0.000000 4.570404 10.946007 -2.628001 -1.204348 9.795978 -6.607344 10.592418 -0.524576 -2.232099 -22.016087 -25.811705 -69.047694 0.000681 -110.069284 0.000953 17.560894 -1.368341 16.427681 2.466098 -1.576200 2.681697 9.056408 10.601968 -5.965556 3.229786 -1.864690 1.864711 9.417681 22.103537 3.251299 2.652632 -1.531480 1.531481 2.732977 51.440064 6.459139 1.954610 -1.128465 1.128489 -0.000002 0.000002 0.000001 9.109291 -0.518122 2.259873 5.468822 6.735379 -78.128061 8.288576 6.736420 -101.829248 5.506378 6.743097 -78.448063 0.000003 -0.000001 -0.000001 9.533383 -0.000027 0.000010 5.466918 6.734976 -78.111853 8.290479 6.736028 -101.845442 5.506379 6.743106 -78.448049 -0.000001 -0.000002 -0.000002 9.104505 -0.043086 -1.865116 5.468822 6.735379 -78.128061 8.288575 6.736425 -101.829228 5.506378 6.743111 -78.448042 -0.000003 -0.000001 -0.000003 8.077796 -0.486998 -3.806315 7.578366 7.180479 -77.998848 8.273341 2.652715 -101.675562 5.501552 6.742124 -78.406993 0.000002 -0.000000 0.000000 -4.570000 10.946198 -2.628003 3.917425 19.032437 0.733003 -10.592796 -0.524797 -2.232091 -23.564469 27.370750 62.542560 0.000024 125.479085 -0.000025 -28.328802 -0.000019 -0.000005 1.051869 6.899807 -11.844646 -8.076715 -0.486720 -3.806232 5.628762 -6.822409 79.026785 -3.600000 -0.000004 0.000013 7.017422 -6.947888 90.571963 3.897160 -6.245459 63.897028 -0.000002 0.000000 -0.000002 -9.103579 -0.043027 -1.865128 5.628764 -6.822404 79.026785 7.017419 -6.947887 90.571949 3.897159 -6.245460 63.897028 -0.000001 -0.000002 0.000000 -9.532494 -0.000007 -0.000003 5.628764 -6.822404 79.026785 7.017419 -6.947887 90.571949 3.897154 -6.245464 63.897034 -2.833899 0.000015 -0.000005 -0.000002 -0.000001 -0.000001 -9.108292 -0.517852 2.259847 5.628764 -6.822404 79.026785 7.017419 -6.947887 90.571949 3.897159 -6.245460 63.897028 -0.000001 -0.000002 0.000000 -2.464801 -1.573938 2.681859 -0.815741 -16.226004 6.504809 -3.229795 -1.864709 1.864731 17.424108 -21.200380 1.267103 -2.652546 -1.531445 1.531451 18.064209 -57.087647 -8.376494 -1.954613 -1.128507 1.128479 0.000004 0.000001 0.000003 8.207801 -6.751701 -1.599594 -38.183011 1.433478 20.911514 0.000007 -44.370502 0.284603 61.380349 -9.127706 6.882713 0.000003 -44.427906 -2.982201 -10.755115 -12.029035 -25.729613 -0.000001 -8.728700 10.710603 -9.834724 -0.144601 3.764909 0.000004 -0.000700 9.278097 0.000000 0.000002 -0.000000 -8.207799 -6.751702 -1.599598 -5.688899 -19.318451 -24.061776 -0.000004 -44.370499 0.286199 46.117878 0.349423 -2.764226 0.000001 -44.427700 -2.983799 -33.945545 -8.174298 22.387396 -0.000000 -8.728700 10.710600 -1.418186 -0.000036 -0.000009 0.000004 -0.000700 9.278101 -0.000000 -0.000000 -0.000000 
